
          <svg data-logo="logo" xmlns="http://www.w3.org/2000/svg" viewBox="0 0 246 43">
            <g id="logogram" transform="translate(0, 1) rotate(0)"><path d="M37.4552 2.39882C38.3804 1.43634 39.6368 0.89563 40.9453 0.89563C46.8318 0.89563 52.3794 0.895633 57.8425 0.895644C68.8303 0.895667 74.3325 14.7158 66.5629 22.7986L49.639 40.4046C48.862 41.2129 47.5335 40.6405 47.5335 39.4974V23.9906L49.4894 21.9559C51.0433 20.3393 49.9427 17.5753 47.7452 17.5753H22.8667L37.4552 2.39882Z" fill="#007DFC"/><path d="M32.945 39.1672C32.0198 40.1296 30.7634 40.6703 29.455 40.6703C23.5684 40.6703 18.0208 40.6703 12.5577 40.6703C1.56991 40.6703 -3.93229 26.8501 3.83728 18.7674L20.7612 1.16133C21.5382 0.353051 22.8667 0.925506 22.8667 2.06858L22.8667 17.5753L20.9109 19.6101C19.3569 21.2266 20.4575 23.9907 22.6551 23.9907L47.5335 23.9906L32.945 39.1672Z" fill="#007DFC"/></g>
            <g id="logotype" transform="translate(77, 5.5)"><path fill="#111111" d="M18.32 32.48L18.32 32.48Q14.49 32.48 11.74 31.23Q8.99 29.98 6.70 27.42L6.70 27.42L11.19 22.98Q12.69 24.70 14.51 25.64Q16.34 26.59 18.76 26.59L18.76 26.59Q20.96 26.59 22.17 25.80Q23.38 25.00 23.38 23.60L23.38 23.60Q23.38 22.32 22.59 21.53Q21.80 20.74 20.50 20.16Q19.20 19.59 17.64 19.06Q16.08 18.54 14.54 17.85Q13.00 17.17 11.70 16.14Q10.40 15.10 9.61 13.54Q8.82 11.98 8.82 9.60L8.82 9.60Q8.82 6.74 10.20 4.68Q11.59 2.61 14.05 1.53Q16.52 0.45 19.73 0.45L19.73 0.45Q22.98 0.45 25.69 1.60Q28.40 2.74 30.16 4.72L30.16 4.72L25.67 9.16Q24.26 7.71 22.83 7.01Q21.40 6.30 19.60 6.30L19.60 6.30Q17.79 6.30 16.74 6.99Q15.68 7.67 15.68 8.94L15.68 8.94Q15.68 10.13 16.47 10.86Q17.26 11.58 18.56 12.11Q19.86 12.64 21.42 13.17Q22.98 13.70 24.52 14.40Q26.06 15.10 27.36 16.18Q28.66 17.26 29.45 18.91Q30.24 20.56 30.24 22.98L30.24 22.98Q30.24 27.42 27.08 29.95Q23.91 32.48 18.32 32.48ZM54.00 32L47.27 32L47.27 19.81Q47.27 18.14 46.24 17.11Q45.20 16.07 43.62 16.07L43.62 16.07Q42.52 16.07 41.68 16.53Q40.85 17.00 40.36 17.85Q39.88 18.71 39.88 19.81L39.88 19.81L37.28 18.54Q37.28 16.03 38.34 14.14Q39.40 12.24 41.29 11.21Q43.18 10.18 45.64 10.18L45.64 10.18Q48.15 10.18 50.04 11.21Q51.94 12.24 52.97 14.07Q54.00 15.90 54.00 18.32L54.00 18.32L54.00 32ZM39.88 32L33.15 32L33.15 0.06L39.88 0.06L39.88 32ZM66.37 32.44L66.37 32.44Q63.42 32.44 61.11 30.99Q58.80 29.54 57.46 27.03Q56.12 24.52 56.12 21.31L56.12 21.31Q56.12 18.10 57.46 15.59Q58.80 13.08 61.11 11.63Q63.42 10.18 66.37 10.18L66.37 10.18Q68.52 10.18 70.26 11.01Q72 11.85 73.10 13.32Q74.20 14.80 74.33 16.69L74.33 16.69L74.33 25.93Q74.20 27.82 73.12 29.29Q72.04 30.77 70.28 31.60Q68.52 32.44 66.37 32.44ZM67.73 26.37L67.73 26.37Q69.89 26.37 71.21 24.94Q72.53 23.51 72.53 21.31L72.53 21.31Q72.53 19.81 71.93 18.67Q71.34 17.52 70.26 16.89Q69.18 16.25 67.78 16.25L67.78 16.25Q66.37 16.25 65.29 16.89Q64.21 17.52 63.57 18.67Q62.94 19.81 62.94 21.31L62.94 21.31Q62.94 22.76 63.55 23.90Q64.17 25.05 65.27 25.71Q66.37 26.37 67.73 26.37ZM78.86 32L72.26 32L72.26 26.24L73.28 21.04L72.26 15.85L72.26 10.62L78.86 10.62L78.86 32ZM89.47 32L82.74 32L82.74 10.62L89.47 10.62L89.47 32ZM89.47 20.25L89.47 20.25L86.65 18.05Q87.49 14.31 89.47 12.24Q91.45 10.18 94.97 10.18L94.97 10.18Q96.51 10.18 97.67 10.64Q98.84 11.10 99.72 12.07L99.72 12.07L95.72 17.13Q95.28 16.64 94.62 16.38Q93.96 16.12 93.12 16.12L93.12 16.12Q91.45 16.12 90.46 17.15Q89.47 18.18 89.47 20.25ZM110.59 32.48L110.59 32.48Q107.11 32.48 104.41 31.05Q101.70 29.62 100.16 27.07Q98.62 24.52 98.62 21.31L98.62 21.31Q98.62 18.10 100.14 15.57Q101.66 13.04 104.25 11.58Q106.85 10.13 110.10 10.13L110.10 10.13Q113.27 10.13 115.69 11.50Q118.11 12.86 119.50 15.28Q120.88 17.70 120.88 20.82L120.88 20.82Q120.88 21.40 120.82 22.03Q120.75 22.67 120.58 23.51L120.58 23.51L102.14 23.55L102.14 18.93L117.72 18.89L114.81 20.82Q114.77 18.98 114.24 17.77Q113.71 16.56 112.68 15.92Q111.64 15.28 110.15 15.28L110.15 15.28Q108.56 15.28 107.40 16.01Q106.23 16.73 105.59 18.05Q104.96 19.37 104.96 21.26L104.96 21.26Q104.96 23.16 105.64 24.50Q106.32 25.84 107.57 26.57Q108.83 27.29 110.54 27.29L110.54 27.29Q112.13 27.29 113.40 26.74Q114.68 26.19 115.65 25.09L115.65 25.09L119.34 28.79Q117.76 30.64 115.52 31.56Q113.27 32.48 110.59 32.48ZM127.48 32.48L127.48 32.48Q125.77 32.48 124.62 31.30Q123.48 30.11 123.48 28.44L123.48 28.44Q123.48 26.68 124.62 25.51Q125.77 24.34 127.48 24.34L127.48 24.34Q129.24 24.34 130.37 25.51Q131.49 26.68 131.49 28.44L131.49 28.44Q131.49 30.11 130.37 31.30Q129.24 32.48 127.48 32.48ZM142.31 32L135.58 32L135.58 10.62L142.31 10.62L142.31 32ZM138.97 7.67L138.97 7.67Q137.38 7.67 136.35 6.59Q135.32 5.51 135.32 3.97L135.32 3.97Q135.32 2.39 136.35 1.33Q137.38 0.28 138.97 0.28L138.97 0.28Q140.55 0.28 141.56 1.33Q142.58 2.39 142.58 3.97L142.58 3.97Q142.58 5.51 141.56 6.59Q140.55 7.67 138.97 7.67ZM156.48 32.48L156.48 32.48Q153.18 32.48 150.52 31.01Q147.86 29.54 146.32 26.98Q144.78 24.43 144.78 21.26L144.78 21.26Q144.78 18.10 146.32 15.59Q147.86 13.08 150.50 11.61Q153.14 10.13 156.48 10.13L156.48 10.13Q159.82 10.13 162.46 11.58Q165.10 13.04 166.64 15.57Q168.18 18.10 168.18 21.26L168.18 21.26Q168.18 24.43 166.64 26.98Q165.10 29.54 162.46 31.01Q159.82 32.48 156.48 32.48ZM156.48 26.37L156.48 26.37Q157.93 26.37 159.03 25.73Q160.13 25.09 160.73 23.93Q161.32 22.76 161.32 21.26L161.32 21.26Q161.32 19.77 160.70 18.65Q160.09 17.52 159.01 16.89Q157.93 16.25 156.48 16.25L156.48 16.25Q155.07 16.25 153.97 16.89Q152.87 17.52 152.26 18.67Q151.64 19.81 151.64 21.31L151.64 21.31Q151.64 22.76 152.26 23.93Q152.87 25.09 153.97 25.73Q155.07 26.37 156.48 26.37Z"/></g>
            
          </svg>
        